<?xml version="1.0" encoding="UTF-8" standalone="no"?>
<!DOCTYPE svg PUBLIC "-//W3C//DTD SVG 1.1//EN" "http://www.w3.org/Graphics/SVG/1.1/DTD/svg11.dtd">
<svg xmlns="http://www.w3.org/2000/svg" version="1.1" viewBox="0.00 0.00 857.00 228.00">
<g stroke-width="2.00" fill="none" stroke-linecap="butt">
<path stroke="#c1257b" vector-effect="non-scaling-stroke" d="
  M 192.59 53.36
  Q 187.87 53.46 183.03 53.64
  Q 177.77 53.84 173.47 53.83
  Q 112.38 53.79 51.30 53.78
  Q 51.18 53.78 39.72 53.44
  Q 31.85 53.20 23.75 54.20"
/>
<path stroke="#88237a" vector-effect="non-scaling-stroke" d="
  M 228.91 70.93
  Q 229.30 71.02 228.90 71.33
  Q 228.76 71.44 228.56 71.46
  Q 225.27 71.82 218.75 71.79
  Q 172.42 71.54 66.75 71.71
  Q 61.18 71.72 58.01 70.95"
/>
<path stroke="#532072" vector-effect="non-scaling-stroke" d="
  M 193.45 107.96
  Q 193.09 107.90 192.89 108.25
  Q 192.67 108.65 192.21 108.66
  L 24.33 109.07"
/>
<path stroke="#304894" vector-effect="non-scaling-stroke" d="
  M 227.81 125.48
  L 57.80 125.51"
/>
<path stroke="#1771b4" vector-effect="non-scaling-stroke" d="
  M 192.78 162.87
  L 92.64 162.62
  Q 92.40 162.62 92.23 162.78
  Q 92.11 162.89 92.00 162.89
  Q 69.76 163.12 47.47 163.12
  C 45.47 163.12 42.87 162.88 40.57 162.96
  C 35.75 163.13 30.99 162.97 26.19 163.01
  A 0.91 0.89 15.3 0 0 25.42 163.44
  Q 25.14 163.89 24.72 164.10"
/>
<path stroke="#268c7c" vector-effect="non-scaling-stroke" d="
  M 227.54 179.86
  Q 218.92 181.26 210.40 180.38"
/>
<path stroke="#268c7c" vector-effect="non-scaling-stroke" d="
  M 202.43 180.54
  L 58.78 180.56"
/>
</g>
<path fill="#d02780" d="
  M 192.59 53.36
  Q 187.87 53.46 183.03 53.64
  Q 177.77 53.84 173.47 53.83
  Q 112.38 53.79 51.30 53.78
  Q 51.18 53.78 39.72 53.44
  Q 31.85 53.20 23.75 54.20
  Q 22.70 53.80 21.89 52.83
  Q 21.59 52.48 21.59 52.01
  L 21.60 16.62
  A 0.39 0.39 0.0 0 1 21.99 16.23
  L 161.22 16.23
  A 3.60 3.54 -30.2 0 1 162.94 16.67
  L 228.49 52.51
  Q 229.71 53.18 228.31 53.18
  L 192.59 53.36
  Z
  M 68.69 32.99
  L 68.73 27.86
  Q 68.74 26.99 67.86 27.02
  L 65.81 27.09
  Q 65.01 27.12 65.01 27.93
  L 65.09 41.53
  Q 65.11 43.76 63.78 41.97
  Q 62.50 40.26 60.55 40.80
  A 2.13 2.13 0.0 0 1 57.86 38.98
  C 57.60 36.62 59.51 35.24 61.63 36.20
  Q 62.27 36.49 62.75 35.98
  L 63.91 34.73
  Q 64.34 34.28 63.85 33.90
  Q 62.13 32.58 59.83 32.81
  C 49.92 33.84 54.19 47.93 63.79 43.24
  A 0.98 0.97 -42.9 0 1 64.71 43.27
  Q 66.36 44.23 68.13 43.67
  A 0.87 0.86 -8.8 0 0 68.74 42.85
  L 68.73 37.50
  Q 68.72 36.43 69.70 36.00
  Q 70.00 35.87 70.32 35.90
  Q 71.94 36.01 71.94 37.63
  L 71.96 42.71
  Q 71.96 43.84 73.09 43.82
  L 74.75 43.79
  Q 75.81 43.77 75.78 42.72
  Q 75.71 40.00 75.61 36.75
  C 75.48 32.85 72.41 32.08 69.27 33.39
  Q 68.68 33.63 68.69 32.99
  Z
  M 121.6475 27.5515
  A 0.49 0.49 0.0 0 0 121.1524 27.0666
  L 118.5125 27.0943
  A 0.49 0.49 0.0 0 0 118.0277 27.5894
  L 118.1925 43.3285
  A 0.49 0.49 0.0 0 0 118.6876 43.8134
  L 121.3275 43.7857
  A 0.49 0.49 0.0 0 0 121.8123 43.2906
  L 121.6475 27.5515
  Z
  M 174.48 35.55
  L 174.59 28.09
  Q 174.60 27.07 173.59 27.05
  L 171.81 27.00
  Q 170.56 26.97 170.64 28.22
  Q 171.17 36.38 170.82 42.87
  Q 170.77 43.71 171.60 43.84
  Q 173.53 44.16 174.36 43.24
  C 174.98 42.56 174.25 40.95 174.66 39.91
  Q 174.90 39.28 175.26 39.85
  L 177.43 43.22
  A 1.34 1.33 -16.7 0 0 178.57 43.83
  L 181.54 43.78
  Q 182.51 43.77 181.91 43.00
  L 178.39 38.47
  Q 177.95 37.90 178.44 37.37
  L 181.69 33.92
  A 0.51 0.51 0.0 0 0 181.41 33.07
  Q 179.43 32.69 177.91 33.25
  Q 177.41 33.43 177.11 33.87
  Q 176.28 35.05 175.27 35.92
  Q 174.46 36.62 174.48 35.55
  Z
  M 34.76 31.50
  A 0.76 0.76 0.0 0 1 35.49 32.26
  L 35.45 42.60
  Q 35.45 44.01 36.86 43.95
  L 37.89 43.90
  Q 39.25 43.83 39.24 42.48
  L 39.14 32.59
  A 1.08 1.07 -2.0 0 1 40.16 31.51
  L 42.71 31.34
  Q 43.60 31.28 43.77 30.40
  Q 43.93 29.53 43.80 28.70
  Q 43.68 28.00 42.97 28.00
  L 31.70 28.02
  A 0.93 0.93 0.0 0 0 30.78 29.05
  L 30.95 30.56
  A 0.90 0.90 0.0 0 0 31.81 31.37
  L 34.76 31.50
  Z
  M 93.96 29.78
  A 2.07 2.07 0.0 0 0 91.89 27.71
  A 2.07 2.07 0.0 0 0 89.82 29.78
  A 2.07 2.07 0.0 0 0 91.89 31.85
  A 2.07 2.07 0.0 0 0 93.96 29.78
  Z
  M 140.77 34.91
  L 141.31 34.52
  A 1.60 1.56 -4.3 0 0 141.77 34.00
  C 142.73 32.28 142.53 29.81 140.53 28.92
  C 137.72 27.69 134.00 27.92 131.05 28.02
  A 0.71 0.71 0.0 0 0 130.36 28.73
  L 130.36 43.06
  Q 130.36 43.70 131.00 43.74
  Q 135.84 44.04 138.98 43.63
  C 143.41 43.07 144.42 38.37 140.77 35.82
  Q 140.13 35.37 140.77 34.91
  Z
  M 102.01 40.84
  A 2.14 2.14 0.0 0 1 99.40 39.46
  C 98.51 36.76 100.64 35.44 103.09 36.27
  Q 103.78 36.50 104.25 35.94
  L 105.15 34.85
  A 0.84 0.83 32.4 0 0 104.86 33.56
  C 101.72 32.10 96.70 32.73 95.82 36.74
  C 94.44 43.02 100.52 46.02 105.35 42.92
  Q 105.82 42.62 105.48 42.18
  Q 104.00 40.28 102.01 40.84
  Z
  M 47.35 39.69
  Q 49.43 39.51 51.70 39.76
  A 1.23 1.22 -88.0 0 0 53.06 38.49
  Q 52.80 32.30 46.85 32.93
  C 37.85 33.89 41.37 47.98 51.51 43.11
  Q 52.47 42.64 52.04 41.67
  Q 51.89 41.32 51.52 41.17
  Q 50.24 40.62 48.94 41.14
  Q 47.77 41.60 47.06 41.31
  Q 43.86 39.99 47.35 39.69
  Z
  M 83.40 35.87
  A 1.10 1.09 -89.7 0 1 84.47 36.96
  L 84.50 43.28
  A 0.53 0.52 88.9 0 0 85.03 43.80
  L 87.48 43.78
  Q 88.15 43.78 88.14 43.10
  Q 88.10 39.56 87.86 35.72
  C 87.65 32.30 84.08 32.67 81.79 33.25
  A 2.95 2.93 -43.7 0 1 80.30 33.22
  Q 79.23 32.92 78.11 33.05
  Q 77.49 33.13 77.49 33.75
  L 77.51 42.75
  Q 77.51 43.98 78.75 43.89
  L 80.24 43.78
  A 1.03 1.02 -2.1 0 0 81.19 42.76
  L 81.21 37.56
  A 1.69 1.69 0.0 0 1 82.94 35.87
  L 83.40 35.87
  Z
  M 93.6753 33.4777
  A 0.37 0.37 0.0 0 0 93.3028 33.1103
  L 90.4828 33.1300
  A 0.37 0.37 0.0 0 0 90.1154 33.5025
  L 90.1847 43.4223
  A 0.37 0.37 0.0 0 0 90.5572 43.7897
  L 93.3772 43.7700
  A 0.37 0.37 0.0 0 0 93.7446 43.3975
  L 93.6753 33.4777
  Z
  M 112.48 36.81
  L 108.80 37.30
  Q 105.54 37.73 106.02 40.99
  L 106.08 41.40
  Q 106.48 44.14 109.25 44.00
  L 115.62 43.67
  Q 116.19 43.64 116.22 43.07
  Q 116.42 39.11 115.94 35.48
  C 115.51 32.26 111.00 32.68 108.71 33.17
  Q 107.70 33.39 107.18 34.05
  A 1.22 1.22 0.0 0 0 108.36 36.01
  Q 109.49 35.80 110.55 35.32
  Q 111.22 35.02 111.89 35.33
  Q 112.44 35.59 112.79 36.06
  Q 113.28 36.71 112.48 36.81
  Z
  M 156.1991 37.9595
  A 5.05 5.05 0.0 0 0 151.1403 32.9183
  L 149.1603 32.9217
  A 5.05 5.05 0.0 0 0 144.1192 37.9805
  L 144.1209 38.9605
  A 5.05 5.05 0.0 0 0 149.1797 44.0017
  L 151.1597 43.9983
  A 5.05 5.05 0.0 0 0 156.2008 38.9395
  L 156.1991 37.9595
  Z
  M 169.1680 37.8151
  A 5.06 5.06 0.0 0 0 164.0032 32.8622
  L 162.1836 32.9003
  A 5.06 5.06 0.0 0 0 157.2306 38.0651
  L 157.2520 39.0849
  A 5.06 5.06 0.0 0 0 162.4168 44.0378
  L 164.2364 43.9997
  A 5.06 5.06 0.0 0 0 169.1894 38.8349
  L 169.1680 37.8151
  Z"
/>
<ellipse fill="#d02780" cx="0.00" cy="0.00" transform="translate(136.26,32.82) rotate(-1.0)" rx="2.33" ry="1.46"/>
<ellipse fill="#d02780" cx="47.40" cy="36.38" rx="1.81" ry="0.81"/>
<circle fill="#d02780" cx="163.23" cy="38.43" r="2.52"/>
<circle fill="#d02780" cx="150.10" cy="38.45" r="2.50"/>
<rect fill="#d02780" x="-2.48" y="-1.50" transform="translate(136.63,39.24) rotate(-1.4)" width="4.96" height="3.00" rx="1.21"/>
<ellipse fill="#d02780" cx="0.00" cy="0.00" transform="translate(111.24,40.54) rotate(-13.7)" rx="1.90" ry="1.10"/>
<circle fill="#481d65" cx="585.17" cy="49.76" r="6.50"/>
<path fill="#481d65" d="
  M 776.76 78.98
  A 0.43 0.43 0.0 0 0 777.47 78.66
  Q 777.49 70.16 777.44 60.90
  Q 777.41 56.93 776.37 53.96
  C 775.19 50.61 771.04 51.87 768.47 52.41
  Q 767.98 52.51 767.81 52.04
  Q 767.60 51.48 767.70 50.87
  Q 767.77 50.38 768.23 50.21
  Q 776.04 47.18 784.23 43.74
  Q 785.90 43.04 787.66 43.45
  Q 788.15 43.56 788.15 44.06
  Q 788.06 82.56 788.26 122.89
  C 788.27 125.89 788.56 129.65 791.97 130.57
  C 793.70 131.04 795.29 130.23 796.96 129.88
  Q 797.55 129.76 797.87 130.28
  Q 797.98 130.47 798.02 130.69
  Q 798.18 131.76 797.18 132.17
  L 780.04 139.30
  Q 777.70 140.27 777.48 137.74
  Q 777.27 135.33 777.58 132.34
  Q 777.84 129.81 776.12 131.68
  Q 774.52 133.41 772.63 134.77
  C 755.37 147.15 737.16 132.06 735.35 114.15
  Q 733.50 95.92 745.63 82.47
  C 753.32 73.95 767.58 70.85 776.76 78.98
  Z
  M 757.22 129.27
  C 763.60 134.03 772.26 132.68 777.11 126.28
  Q 777.52 125.74 777.51 125.06
  Q 777.38 110.64 777.52 97.54
  C 777.58 91.04 776.02 84.95 770.99 81.02
  C 764.83 76.22 757.65 77.82 752.89 83.60
  C 746.20 91.69 745.91 104.06 747.84 114.03
  Q 749.71 123.66 757.22 129.27
  Z"
/>
<path fill="#481d65" d="
  M 275.23 62.13
  Q 274.94 62.08 274.94 62.38
  Q 275.05 90.85 274.97 122.00
  Q 274.97 123.68 275.20 127.51
  C 275.60 133.96 281.33 135.43 286.76 134.96
  A 0.92 0.90 -22.8 0 1 287.52 135.26
  Q 288.13 135.97 287.62 136.79
  A 1.05 1.03 -73.5 0 1 286.74 137.28
  L 257.22 137.25
  Q 256.69 137.25 256.71 136.72
  L 256.75 135.53
  Q 256.77 135.03 257.27 135.04
  C 261.51 135.14 266.67 134.80 268.42 130.63
  Q 269.47 128.12 269.47 124.86
  Q 269.47 90.39 269.47 62.40
  C 269.47 53.04 266.75 49.89 257.34 49.52
  Q 256.81 49.50 256.77 48.97
  L 256.69 47.96
  Q 256.64 47.30 257.29 47.30
  L 281.08 47.28
  A 1.21 1.19 -12.3 0 1 282.17 47.97
  L 313.86 116.84
  A 0.63 0.63 0.0 0 0 315.00 116.84
  L 346.10 48.11
  A 1.43 1.41 12.3 0 1 347.39 47.29
  L 370.82 47.30
  Q 371.59 47.30 371.53 48.07
  L 371.49 48.48
  Q 371.40 49.53 370.35 49.50
  C 366.41 49.37 361.80 49.89 359.99 53.80
  Q 358.86 56.23 358.84 61.01
  Q 358.75 91.86 358.87 121.21
  Q 358.89 125.12 359.29 128.50
  C 359.97 134.23 365.83 135.35 370.59 134.93
  Q 371.55 134.84 371.55 135.80
  L 371.54 136.24
  Q 371.54 137.28 370.51 137.28
  L 334.47 137.27
  Q 333.67 137.27 333.67 136.47
  L 333.66 135.79
  A 0.86 0.85 -88.4 0 1 334.56 134.93
  C 341.70 135.36 346.38 133.42 346.41 125.35
  Q 346.54 92.54 346.47 62.45
  A 0.29 0.29 0.0 0 0 346.15 62.16
  Q 345.86 62.19 345.77 62.40
  Q 329.27 98.87 312.00 136.66
  A 1.47 1.45 -79.1 0 1 310.76 137.51
  Q 309.99 137.56 309.66 136.84
  Q 292.23 98.79 275.78 62.54
  Q 275.62 62.19 275.23 62.13
  Z"
/>
<path fill="#481d65" d="
  M 473.22 86.60
  Q 473.22 87.29 473.91 87.29
  Q 481.24 87.24 489.06 87.34
  C 497.34 87.44 500.06 84.14 501.19 76.15
  Q 501.33 75.18 502.31 75.28
  L 502.68 75.31
  Q 503.48 75.39 503.47 76.18
  L 503.43 104.38
  A 0.93 0.93 0.0 0 1 502.37 105.30
  L 502.04 105.25
  Q 501.32 105.15 501.29 104.42
  C 500.99 96.00 497.61 92.50 489.22 92.53
  Q 481.45 92.55 473.95 92.47
  A 0.79 0.79 0.0 0 0 473.15 93.26
  Q 473.17 109.72 473.18 125.24
  Q 473.18 128.09 473.96 130.30
  C 475.35 134.20 481.51 135.25 485.08 134.98
  A 0.97 0.97 0.0 0 1 486.10 135.74
  Q 486.16 136.00 486.13 136.26
  A 1.12 1.11 -87.2 0 1 485.02 137.27
  L 448.80 137.27
  Q 447.64 137.27 447.70 136.11
  Q 447.71 135.96 447.73 135.82
  A 1.08 1.07 -83.8 0 1 448.85 134.91
  C 458.95 135.46 460.71 131.24 460.75 123.01
  Q 460.91 89.29 460.66 61.40
  C 460.62 57.12 460.96 52.62 456.14 50.65
  Q 452.31 49.07 448.42 49.54
  Q 448.20 49.57 448.10 49.37
  Q 447.77 48.75 447.76 47.96
  Q 447.75 47.54 448.15 47.46
  Q 448.85 47.32 449.62 47.32
  Q 481.07 47.22 513.46 47.32
  Q 514.12 47.32 514.16 47.98
  L 515.08 66.81
  A 0.40 0.39 -2.1 0 1 514.69 67.22
  L 513.24 67.26
  Q 512.92 67.27 512.85 66.96
  C 510.59 57.44 506.00 52.04 495.68 52.17
  Q 483.99 52.33 473.80 52.12
  A 0.59 0.59 0.0 0 0 473.20 52.71
  L 473.22 86.60
  Z"
/>
<path fill="#b22275" d="
  M 192.59 53.36
  L 228.91 70.93
  Q 229.30 71.02 228.90 71.33
  Q 228.76 71.44 228.56 71.46
  Q 225.27 71.82 218.75 71.79
  Q 172.42 71.54 66.75 71.71
  Q 61.18 71.72 58.01 70.95
  L 23.75 54.20
  Q 31.85 53.20 39.72 53.44
  Q 51.18 53.78 51.30 53.78
  Q 112.38 53.79 173.47 53.83
  Q 177.77 53.84 183.03 53.64
  Q 187.87 53.46 192.59 53.36
  Z"
/>
<path fill="#5e237f" d="
  M 228.91 70.93
  Q 229.54 70.40 229.54 71.25
  Q 229.59 89.25 229.55 107.57
  Q 229.55 108.12 229.01 108.11
  L 193.45 107.96
  Q 193.09 107.90 192.89 108.25
  Q 192.67 108.65 192.21 108.66
  L 24.33 109.07
  Q 23.23 108.97 21.89 107.70
  Q 21.57 107.40 21.57 106.95
  L 21.58 71.53
  A 0.57 0.57 0.0 0 1 22.15 70.96
  L 58.01 70.95
  Q 61.18 71.72 66.75 71.71
  Q 172.42 71.54 218.75 71.79
  Q 225.27 71.82 228.56 71.46
  Q 228.76 71.44 228.90 71.33
  Q 229.30 71.02 228.91 70.93
  Z
  M 82.66 87.69
  Q 79.31 86.21 76.69 88.45
  C 74.87 90.01 74.76 92.66 75.03 94.85
  C 75.45 98.33 78.72 99.54 81.80 98.81
  Q 83.90 98.31 86.20 98.81
  A 1.04 1.04 0.0 0 0 87.46 97.79
  L 87.33 82.55
  Q 87.31 81.03 85.80 81.00
  L 85.04 80.98
  Q 83.27 80.94 83.28 82.71
  L 83.32 87.25
  Q 83.33 87.99 82.66 87.69
  Z
  M 121.9818 81.8335
  A 0.78 0.78 0.0 0 0 121.1991 81.0562
  L 119.0191 81.0639
  A 0.78 0.78 0.0 0 0 118.2418 81.8466
  L 118.2982 97.9865
  A 0.78 0.78 0.0 0 0 119.0809 98.7638
  L 121.2609 98.7561
  A 0.78 0.78 0.0 0 0 122.0382 97.9734
  L 121.9818 81.8335
  Z
  M 177.30 94.84
  L 179.07 97.55
  A 2.73 2.73 0.0 0 0 181.34 98.79
  Q 183.17 98.80 183.22 98.80
  Q 184.87 98.81 183.89 97.48
  Q 182.39 95.44 180.67 93.22
  A 0.93 0.93 0.0 0 1 180.72 92.02
  L 183.86 88.59
  Q 184.92 87.43 183.35 87.35
  L 181.61 87.26
  Q 180.19 87.18 179.23 88.24
  L 177.14 90.57
  A 0.39 0.38 -23.7 0 1 176.47 90.31
  L 176.56 82.53
  Q 176.58 80.98 175.03 80.97
  L 174.05 80.96
  Q 172.54 80.95 172.54 82.45
  L 172.51 97.51
  Q 172.51 99.02 174.01 98.88
  L 175.42 98.75
  A 1.44 1.43 -7.6 0 0 176.70 97.08
  Q 176.52 96.01 176.69 94.97
  Q 176.83 94.12 177.30 94.84
  Z
  M 93.38 83.96
  A 2.18 2.18 0.0 0 0 91.20 81.78
  A 2.18 2.18 0.0 0 0 89.02 83.96
  A 2.18 2.18 0.0 0 0 91.20 86.14
  A 2.18 2.18 0.0 0 0 93.38 83.96
  Z
  M 142.20 89.56
  C 144.88 86.74 143.60 83.01 139.77 82.61
  Q 135.76 82.19 131.92 82.40
  Q 131.16 82.44 131.16 83.20
  L 131.09 98.01
  A 0.74 0.74 0.0 0 0 131.83 98.75
  C 135.81 98.74 145.41 100.35 144.03 92.93
  Q 143.93 92.39 143.55 91.99
  L 142.19 90.55
  A 0.72 0.72 0.0 0 1 142.20 89.56
  Z
  M 45.57 88.88
  Q 47.34 92.70 48.34 97.14
  Q 48.69 98.70 50.22 98.90
  A 2.31 2.29 -77.5 0 0 52.72 97.30
  Q 54.01 93.19 55.42 89.18
  Q 56.21 86.93 56.19 89.31
  L 56.10 97.69
  Q 56.09 98.80 57.19 98.78
  L 58.99 98.74
  Q 59.95 98.72 59.95 97.76
  L 59.97 83.21
  A 0.77 0.77 0.0 0 0 59.21 82.44
  L 55.72 82.40
  A 2.07 2.07 0.0 0 0 53.76 83.76
  L 50.94 91.50
  Q 50.57 92.54 50.22 91.49
  L 47.55 83.46
  A 1.44 1.43 81.2 0 0 46.20 82.47
  L 42.19 82.40
  A 0.92 0.91 -89.1 0 0 41.26 83.31
  L 41.23 97.58
  A 1.29 1.28 88.5 0 0 42.58 98.87
  L 44.31 98.79
  Q 45.60 98.72 45.54 97.44
  L 45.16 88.98
  Q 45.11 87.89 45.57 88.88
  Z
  M 73.66 91.89
  L 73.27 90.58
  A 4.75 4.75 0.0 0 0 68.82 87.17
  Q 63.15 87.04 62.14 91.60
  C 60.69 98.13 67.10 100.68 72.14 98.02
  A 1.21 1.20 -36.2 0 0 72.44 96.11
  Q 71.89 95.54 71.13 95.23
  A 1.10 1.07 35.9 0 0 70.04 95.39
  Q 68.07 97.01 66.66 95.66
  Q 65.06 94.14 67.26 94.24
  L 71.68 94.43
  Q 74.45 94.54 73.66 91.89
  Z
  M 157.7378 92.9485
  A 6.55 6.02 -1.5 0 0 151.0324 87.1021
  A 6.55 6.02 -1.5 0 0 144.6422 93.2915
  A 6.55 6.02 -1.5 0 0 151.3476 99.1379
  A 6.55 6.02 -1.5 0 0 157.7378 92.9485
  Z
  M 171.3195 93.0607
  A 6.49 6.03 -0.7 0 0 164.7563 87.1105
  A 6.49 6.03 -0.7 0 0 158.3405 93.2193
  A 6.49 6.03 -0.7 0 0 164.9037 99.1695
  A 6.49 6.03 -0.7 0 0 171.3195 93.0607
  Z
  M 104.51 96.22
  Q 103.38 94.97 101.92 95.57
  A 2.27 2.26 71.3 0 1 98.87 94.06
  C 98.45 92.49 99.15 90.48 101.03 90.66
  C 102.71 90.82 104.00 91.30 104.94 89.39
  A 1.15 1.15 0.0 0 0 104.33 87.81
  Q 100.35 86.25 96.99 88.46
  C 94.97 89.79 94.81 92.27 95.06 94.44
  C 95.63 99.50 101.73 99.90 105.27 97.90
  Q 105.66 97.68 106.02 97.94
  Q 108.28 99.58 111.22 98.79
  C 112.72 98.39 114.23 98.84 115.78 98.71
  A 0.67 0.67 0.0 0 0 116.40 98.04
  Q 116.44 94.48 116.19 91.02
  C 115.82 86.02 109.64 86.72 106.42 88.47
  A 0.67 0.67 0.0 0 0 106.27 89.53
  L 107.17 90.41
  A 0.93 0.93 0.0 0 0 108.16 90.61
  L 110.56 89.71
  Q 111.69 89.28 112.24 90.36
  L 112.44 90.75
  A 0.55 0.55 0.0 0 1 112.06 91.54
  C 109.44 92.08 104.84 91.58 105.27 95.89
  Q 105.41 97.22 104.51 96.22
  Z
  M 93.0113 88.1267
  A 0.68 0.68 0.0 0 0 92.3302 87.4479
  L 89.9302 87.4521
  A 0.68 0.68 0.0 0 0 89.2513 88.1333
  L 89.2687 98.0533
  A 0.68 0.68 0.0 0 0 89.9498 98.7321
  L 92.3498 98.7279
  A 0.68 0.68 0.0 0 0 93.0287 98.0467
  L 93.0113 88.1267
  Z"
/>
<path fill="#481d65" d="
  M 397.33 86.33
  Q 398.85 84.12 400.33 81.96
  C 404.21 76.31 411.81 70.95 418.00 76.88
  C 420.78 79.54 420.93 84.07 417.81 86.57
  C 413.65 89.90 409.67 85.37 406.28 83.49
  A 2.68 2.67 -50.6 0 0 403.26 83.79
  Q 399.82 86.70 397.14 91.81
  Q 396.12 93.76 396.12 96.12
  Q 396.14 110.56 396.16 123.38
  C 396.18 131.15 398.36 134.05 406.19 135.14
  A 0.99 0.99 0.0 0 1 406.78 136.80
  Q 406.35 137.26 405.72 137.26
  Q 391.14 137.30 376.75 137.25
  Q 375.89 137.25 375.87 136.38
  L 375.86 136.10
  Q 375.83 134.97 376.96 134.94
  Q 383.45 134.75 385.07 130.82
  Q 385.56 129.64 385.57 123.13
  Q 385.60 107.72 385.47 90.25
  C 385.42 84.00 382.94 81.90 376.77 83.73
  Q 375.90 83.99 375.66 83.11
  Q 375.62 82.99 375.60 82.86
  Q 375.38 81.79 376.39 81.38
  L 394.06 74.18
  A 1.56 1.56 0.0 0 1 396.21 75.64
  L 396.10 85.94
  Q 396.08 88.15 397.33 86.33
  Z"
/>
<path fill="#481d65" d="
  M 543.43 86.66
  Q 544.20 85.69 544.96 84.31
  Q 546.86 80.85 550.50 77.61
  C 555.11 73.50 561.81 72.60 565.34 78.39
  Q 567.57 82.04 565.10 85.36
  C 561.44 90.26 556.77 86.48 553.25 83.95
  Q 550.82 82.20 548.58 84.50
  C 545.99 87.16 542.25 91.86 542.25 95.77
  Q 542.26 110.65 542.30 123.76
  C 542.32 130.68 544.71 134.57 552.04 135.02
  Q 553.19 135.09 553.13 136.24
  L 553.11 136.63
  Q 553.08 137.27 552.44 137.27
  L 523.10 137.27
  Q 521.99 137.27 521.97 136.17
  Q 521.97 135.96 522.02 135.76
  A 0.91 0.90 4.0 0 1 522.82 135.07
  C 527.67 134.68 531.75 133.48 531.76 127.74
  Q 531.79 107.97 531.66 90.39
  Q 531.64 87.48 530.79 85.46
  C 529.44 82.26 525.61 83.11 522.68 83.78
  Q 521.94 83.95 521.81 83.20
  L 521.71 82.63
  Q 521.57 81.79 522.36 81.47
  L 540.05 74.25
  Q 542.29 73.33 542.29 75.75
  L 542.28 86.26
  Q 542.28 88.11 543.43 86.66
  Z"
/>
<path fill="#481d65" d="
  M 571.32 135.00
  C 577.21 135.16 579.70 132.47 579.76 126.71
  Q 579.92 110.68 579.77 92.88
  C 579.72 86.94 579.33 80.90 571.11 83.85
  Q 570.41 84.10 570.10 83.42
  Q 569.91 83.00 569.89 82.50
  Q 569.84 81.70 570.58 81.39
  L 587.90 74.32
  Q 590.50 73.26 590.50 76.08
  Q 590.42 102.09 590.44 124.49
  C 590.44 130.28 591.34 134.89 598.42 134.95
  Q 599.60 134.96 599.95 136.10
  Q 600.05 136.46 599.39 136.86
  Q 598.72 137.27 597.94 137.27
  L 571.25 137.27
  A 0.76 0.76 0.0 0 1 570.49 136.50
  L 570.50 135.78
  A 0.80 0.80 0.0 0 1 571.32 135.00
  Z"
/>
<path fill="#481d65" d="
  M 617.34 100.02
  C 617.39 110.92 621.23 121.37 631.04 126.53
  C 636.29 129.29 643.70 129.25 648.76 125.90
  C 653.00 123.10 654.82 119.27 656.84 114.64
  Q 657.57 112.96 658.59 114.48
  Q 659.07 115.19 658.90 115.96
  C 656.07 128.88 646.04 141.09 631.46 139.06
  C 621.27 137.64 613.07 129.87 610.11 120.29
  Q 607.20 110.86 608.87 99.52
  C 611.41 82.27 626.07 70.46 643.48 75.42
  C 653.59 78.30 659.18 88.34 659.04 98.76
  A 0.44 0.43 -89.3 0 1 658.61 99.19
  L 618.22 99.15
  A 0.88 0.87 -0.0 0 0 617.34 100.02
  Z
  M 618.41 95.33
  L 645.15 95.19
  A 0.60 0.60 0.0 0 0 645.75 94.59
  L 645.75 94.46
  A 15.65 13.94 89.7 0 0 631.73 78.88
  L 631.67 78.88
  A 15.65 13.94 89.7 0 0 617.81 94.60
  L 617.81 94.73
  A 0.60 0.60 0.0 0 0 618.41 95.33
  Z"
/>
<path fill="#481d65" d="
  M 685.06 86.39
  Q 685.51 86.48 685.79 86.14
  C 691.64 79.06 699.84 72.57 708.86 74.75
  C 718.27 77.03 720.53 87.65 720.50 95.82
  Q 720.43 111.09 720.52 125.98
  C 720.57 132.45 722.59 134.63 729.05 135.09
  A 0.81 0.80 -6.3 0 1 729.76 135.65
  Q 729.87 135.98 729.81 136.32
  Q 729.62 137.27 728.65 137.27
  L 700.75 137.27
  A 0.95 0.94 -87.5 0 1 699.81 136.24
  L 699.85 135.72
  Q 699.91 135.01 700.62 135.01
  C 705.67 135.02 709.77 133.84 709.80 127.73
  Q 709.87 111.49 709.79 95.48
  C 709.76 90.00 708.28 83.42 701.99 82.48
  C 695.85 81.55 689.61 85.85 685.32 90.33
  Q 684.66 91.02 684.66 91.97
  Q 684.67 108.71 684.68 125.62
  C 684.68 132.10 686.55 135.03 693.53 134.93
  A 1.15 1.14 83.5 0 1 694.66 135.83
  Q 694.71 136.07 694.70 136.32
  Q 694.64 137.28 693.67 137.28
  L 665.67 137.27
  Q 664.81 137.27 664.71 136.41
  Q 664.66 135.94 664.93 135.48
  A 1.06 1.05 16.3 0 1 665.89 134.96
  C 674.31 135.30 673.88 129.01 673.98 122.40
  Q 674.26 103.68 673.61 87.93
  C 673.39 82.84 669.26 82.44 665.45 83.82
  Q 664.51 84.17 664.23 83.20
  L 664.05 82.59
  Q 663.81 81.78 664.59 81.47
  L 682.06 74.33
  Q 684.71 73.24 684.68 76.10
  L 684.60 85.82
  A 0.57 0.57 0.0 0 0 685.06 86.39
  Z"
/>
<path fill="#481d65" d="
  M 809.75 135.41
  C 808.90 135.22 808.08 135.84 807.49 136.39
  Q 804.86 138.82 804.85 135.23
  L 804.84 117.05
  A 0.55 0.54 -13.1 0 1 805.16 116.54
  C 805.92 116.20 806.74 116.58 806.95 117.39
  C 808.61 123.73 811.36 129.73 817.08 133.08
  C 822.39 136.19 829.99 137.04 834.13 131.84
  C 837.36 127.80 836.50 121.87 832.94 118.45
  Q 829.99 115.63 826.39 113.76
  Q 819.36 110.10 813.71 106.77
  Q 802.00 99.87 805.45 86.83
  C 806.85 81.51 811.27 76.99 816.60 75.25
  C 823.13 73.11 828.57 75.15 834.95 76.70
  Q 837.84 77.40 838.81 74.88
  Q 838.99 74.39 839.51 74.39
  L 840.52 74.37
  Q 841.17 74.37 841.17 75.01
  L 841.20 94.52
  A 0.92 0.91 84.7 0 1 840.46 95.42
  Q 839.29 95.64 838.96 94.46
  C 836.51 85.78 833.44 78.06 822.60 78.05
  C 814.09 78.05 808.82 85.28 814.60 92.77
  Q 816.54 95.30 820.46 97.28
  Q 826.99 100.57 833.35 103.76
  Q 837.01 105.58 840.07 108.43
  C 848.10 115.90 847.33 128.44 838.44 134.87
  Q 828.52 142.03 816.70 137.50
  Q 813.26 136.18 809.75 135.41
  Z"
/>
<ellipse fill="#5e237f" cx="0.00" cy="0.00" transform="translate(137.17,87.22) rotate(0.6)" rx="2.31" ry="1.61"/>
<rect fill="#5e237f" x="-1.66" y="-0.94" transform="translate(67.72,90.88) rotate(-2.8)" width="3.32" height="1.88" rx="0.87"/>
<ellipse fill="#5e237f" cx="0.00" cy="0.00" transform="translate(81.15,93.17) rotate(92.2)" rx="2.68" ry="2.45"/>
<ellipse fill="#5e237f" cx="0.00" cy="0.00" transform="translate(151.17,93.12) rotate(86.3)" rx="2.65" ry="2.44"/>
<ellipse fill="#5e237f" cx="0.00" cy="0.00" transform="translate(164.87,93.15) rotate(88.4)" rx="2.70" ry="2.48"/>
<ellipse fill="#5e237f" cx="0.00" cy="0.00" transform="translate(137.50,93.79) rotate(-0.3)" rx="2.70" ry="1.89"/>
<ellipse fill="#5e237f" cx="0.00" cy="0.00" transform="translate(111.03,95.17) rotate(-23.2)" rx="1.93" ry="1.17"/>
<path fill="#481d65" d="
  M 193.45 107.96
  Q 193.22 108.48 193.99 108.84
  Q 210.72 116.59 227.81 125.48
  L 57.80 125.51
  Q 57.78 125.38 57.75 125.26
  Q 57.75 125.25 57.74 125.25
  Q 41.36 117.80 24.33 109.07
  L 192.21 108.66
  Q 192.67 108.65 192.89 108.25
  Q 193.09 107.90 193.45 107.96
  Z"
/>
<circle fill="#481d65" cx="428.84" cy="131.98" r="7.20"/>
<path fill="#1773c2" d="
  M 227.81 125.48
  Q 228.01 125.33 229.05 125.51
  Q 229.52 125.58 229.52 126.06
  L 229.53 162.48
  Q 229.53 162.97 229.04 162.97
  L 192.78 162.87
  L 92.64 162.62
  Q 92.40 162.62 92.23 162.78
  Q 92.11 162.89 92.00 162.89
  Q 69.76 163.12 47.47 163.12
  C 45.47 163.12 42.87 162.88 40.57 162.96
  C 35.75 163.13 30.99 162.97 26.19 163.01
  A 0.91 0.89 15.3 0 0 25.42 163.44
  Q 25.14 163.89 24.72 164.10
  L 21.92 163.02
  A 0.57 0.56 -79.5 0 1 21.56 162.49
  L 21.63 126.30
  Q 21.63 125.85 22.08 125.84
  L 57.80 125.51
  L 227.81 125.48
  Z
  M 134.5624 136.7930
  A 0.92 0.92 0.0 0 0 133.6392 135.8762
  L 131.4592 135.8839
  A 0.92 0.92 0.0 0 0 130.5424 136.8071
  L 130.5976 152.6270
  A 0.92 0.92 0.0 0 0 131.5208 153.5438
  L 133.7008 153.5361
  A 0.92 0.92 0.0 0 0 134.6176 152.6129
  L 134.5624 136.7930
  Z
  M 188.87 149.81
  A 0.34 0.34 0.0 0 1 189.49 149.62
  L 191.98 153.39
  A 0.34 0.34 0.0 0 0 192.26 153.54
  L 196.55 153.50
  A 0.34 0.34 0.0 0 0 196.82 152.95
  L 192.85 147.63
  A 0.34 0.34 0.0 0 1 192.86 147.20
  L 196.86 142.72
  A 0.34 0.34 0.0 0 0 196.59 142.15
  L 192.12 142.32
  A 0.34 0.34 0.0 0 0 191.87 142.45
  L 189.48 145.32
  A 0.34 0.34 0.0 0 1 188.88 145.10
  L 188.85 136.15
  A 0.34 0.34 0.0 0 0 188.51 135.81
  L 185.43 135.84
  A 0.34 0.34 0.0 0 0 185.09 136.18
  L 185.15 153.21
  A 0.34 0.34 0.0 0 0 185.49 153.54
  L 188.55 153.50
  A 0.34 0.34 0.0 0 0 188.89 153.15
  L 188.87 149.81
  Z
  M 64.75 149.01
  A 1.74 1.72 -0.0 0 1 63.37 150.38
  Q 58.92 151.22 57.31 147.52
  Q 55.97 144.43 58.11 141.90
  Q 60.54 139.05 65.09 141.36
  Q 65.91 141.78 66.51 141.08
  L 68.04 139.33
  Q 68.62 138.66 67.84 138.24
  C 63.21 135.73 56.54 135.94 53.70 141.10
  C 51.10 145.82 53.06 151.37 57.98 153.43
  C 61.01 154.68 64.21 154.02 67.23 153.22
  A 2.00 1.99 82.8 0 0 68.71 151.30
  L 68.73 144.56
  Q 68.73 143.64 67.81 143.63
  L 63.40 143.61
  Q 62.08 143.60 61.78 144.89
  Q 61.12 147.68 63.95 147.45
  Q 65.08 147.37 64.86 148.47
  L 64.75 149.01
  Z
  M 154.58 144.41
  Q 156.13 142.98 155.92 140.60
  C 155.73 138.47 154.05 137.47 152.14 137.37
  Q 148.27 137.17 144.23 137.27
  Q 143.48 137.29 143.48 138.04
  L 143.49 152.72
  A 0.82 0.81 89.7 0 0 144.31 153.54
  Q 147.73 153.50 151.27 153.53
  C 156.08 153.58 159.09 148.80 154.62 145.29
  Q 154.09 144.87 154.58 144.41
  Z
  M 80.33 149.09
  Q 81.98 149.33 82.01 147.63
  C 82.11 140.34 72.77 140.27 70.67 145.61
  C 68.07 152.20 76.16 156.18 80.91 152.44
  A 0.87 0.86 -45.7 0 0 80.90 151.07
  Q 80.18 150.53 79.81 149.83
  Q 79.33 148.95 80.33 149.09
  Z
  M 87.17 142.51
  Q 85.56 142.03 83.98 142.35
  Q 83.46 142.45 83.46 142.99
  L 83.48 152.76
  Q 83.49 153.52 84.26 153.52
  L 86.80 153.51
  Q 87.60 153.51 87.61 152.70
  L 87.65 146.66
  A 1.31 1.31 0.0 0 1 88.81 145.37
  L 89.43 145.30
  Q 90.71 145.16 90.72 146.45
  L 90.76 152.51
  A 1.00 1.00 0.0 0 0 91.77 153.51
  L 93.79 153.50
  Q 94.75 153.50 94.76 152.55
  Q 94.80 148.93 94.70 145.73
  C 94.58 142.10 91.31 141.26 88.44 142.45
  A 1.96 1.92 41.7 0 1 87.17 142.51
  Z
  M 113.06 142.54
  Q 111.53 141.97 109.83 142.36
  Q 109.29 142.48 109.29 143.03
  L 109.30 152.66
  Q 109.30 153.52 110.16 153.52
  L 112.72 153.52
  Q 113.47 153.52 113.48 152.76
  Q 113.50 150.26 113.49 147.82
  Q 113.47 144.93 116.70 145.43
  A 0.94 0.94 0.0 0 0 117.78 144.44
  L 117.65 142.43
  Q 117.58 141.47 116.66 141.75
  L 113.91 142.57
  Q 113.48 142.70 113.06 142.54
  Z
  M 124.78 146.31
  L 121.11 146.78
  Q 117.66 147.23 118.11 150.69
  L 118.16 151.03
  A 3.20 3.20 0.0 0 0 121.78 153.78
  Q 124.84 153.35 128.03 153.50
  Q 129.07 153.55 129.05 152.51
  Q 128.99 149.74 129.01 146.66
  C 129.06 141.08 123.44 141.16 119.59 143.02
  Q 118.48 143.56 119.30 144.48
  L 119.67 144.89
  Q 120.55 145.87 121.65 145.15
  Q 123.09 144.19 124.63 144.80
  Q 125.00 144.95 125.17 145.33
  Q 125.24 145.48 125.27 145.64
  Q 125.37 146.23 124.78 146.31
  Z
  M 183.9592 147.7981
  A 6.49 6.02 -0.9 0 0 177.3754 141.8807
  A 6.49 6.02 -0.9 0 0 170.9808 148.0019
  A 6.49 6.02 -0.9 0 0 177.5646 153.9193
  A 6.49 6.02 -0.9 0 0 183.9592 147.7981
  Z
  M 105.83 149.14
  Q 106.29 148.85 106.85 149.06
  A 0.69 0.69 0.0 0 0 107.76 148.53
  C 109.21 140.02 96.86 139.99 96.18 147.08
  C 95.71 152.02 99.42 154.43 104.27 153.62
  Q 105.78 153.37 106.87 152.30
  Q 107.38 151.80 106.89 151.28
  L 105.72 150.06
  Q 105.21 149.53 105.83 149.14
  Z
  M 170.2741 147.4453
  A 5.32 5.32 0.0 0 0 165.0007 142.0790
  L 162.9808 142.0614
  A 5.32 5.32 0.0 0 0 157.6146 147.3348
  L 157.6059 148.3347
  A 5.32 5.32 0.0 0 0 162.8793 153.7010
  L 164.8992 153.7186
  A 5.32 5.32 0.0 0 0 170.2654 148.4452
  L 170.2741 147.4453
  Z"
/>
<ellipse fill="#1773c2" cx="0.00" cy="0.00" transform="translate(149.74,142.01) rotate(-1.2)" rx="2.35" ry="1.62"/>
<ellipse fill="#176fa5" cx="0.00" cy="0.00" transform="translate(76.26,145.69) rotate(-0.6)" rx="1.75" ry="0.96"/>
<ellipse fill="#176fa5" cx="0.00" cy="0.00" transform="translate(102.04,145.69) rotate(-0.8)" rx="1.67" ry="0.96"/>
<rect fill="#1773c2" x="-2.35" y="-2.57" transform="translate(164.01,147.94) rotate(-2.2)" width="4.70" height="5.14" rx="1.78"/>
<circle fill="#1773c2" cx="177.47" cy="147.95" r="2.61"/>
<path fill="#1773c2" d="
  M 147.73 147.48
  A 0.78 0.78 0.0 0 1 148.54 146.72
  L 150.16 146.77
  A 2.42 1.64 1.7 0 1 152.53 148.48
  L 152.51 148.92
  A 2.42 1.64 1.7 0 1 150.04 150.49
  L 148.43 150.44
  A 0.78 0.78 0.0 0 1 147.67 149.64
  L 147.73 147.48
  Z"
/>
<ellipse fill="#1773c2" cx="0.00" cy="0.00" transform="translate(123.68,150.04) rotate(-20.3)" rx="1.92" ry="1.30"/>
<ellipse fill="#1773c2" cx="0.00" cy="0.00" transform="translate(76.55,149.92) rotate(-0.6)" rx="1.95" ry="1.07"/>
<path fill="#1773c2" d="
  M 104.13 148.96
  A 0.23 0.23 0.0 0 1 104.36 149.19
  L 104.37 149.30
  A 1.70 1.66 88.1 0 1 102.76 151.05
  L 102.18 151.07
  A 1.70 1.66 88.1 0 1 100.47 149.43
  L 100.46 149.32
  A 0.23 0.23 0.0 0 1 100.69 149.08
  L 104.13 148.96
  Z"
/>
<rect fill="#481d65" x="323.74" y="158.75" width="4.54" height="40.96" rx="0.51"/>
<path fill="#481d65" d="
  M 520.13 182.16
  Q 520.13 183.62 521.11 182.53
  L 530.59 172.00
  Q 531.81 170.65 533.64 170.67
  L 536.04 170.70
  Q 537.58 170.71 536.53 171.84
  L 527.14 181.98
  A 1.42 1.40 -41.9 0 0 527.03 183.77
  L 538.14 198.88
  Q 538.74 199.70 537.72 199.71
  L 534.44 199.74
  Q 533.41 199.75 532.80 198.92
  L 524.19 187.25
  A 1.26 1.26 0.0 0 0 522.41 186.99
  Q 520.08 188.77 520.06 191.00
  Q 520.02 195.06 520.17 198.86
  A 0.81 0.81 0.0 0 1 519.37 199.70
  L 516.24 199.72
  Q 515.51 199.73 515.51 198.99
  L 515.48 159.28
  Q 515.48 158.79 515.97 158.78
  L 519.52 158.73
  Q 520.08 158.72 520.08 159.28
  L 520.13 182.16
  Z"
/>
<circle fill="#481d65" cx="339.09" cy="162.96" r="2.75"/>
<path fill="#481d65" d="
  M 560.87 193.88
  Q 566.80 198.67 573.88 195.69
  C 575.68 194.93 576.94 193.21 577.13 191.23
  Q 577.60 186.47 572.98 184.62
  C 566.44 181.99 554.07 179.92 555.74 169.87
  C 557.08 161.88 566.45 159.40 573.22 161.47
  Q 580.53 163.70 581.87 170.97
  Q 582.13 172.37 580.72 172.32
  L 578.57 172.25
  Q 577.25 172.21 577.04 170.90
  C 575.43 160.94 556.49 163.97 561.05 173.52
  Q 562.29 176.14 566.14 177.36
  C 572.28 179.31 580.22 181.16 581.80 188.05
  C 583.04 193.42 579.78 198.34 574.50 199.88
  C 567.81 201.85 559.83 200.43 555.88 194.36
  Q 554.74 192.62 554.49 190.63
  Q 554.28 189.03 555.89 189.10
  L 557.60 189.18
  Q 559.12 189.25 559.39 190.74
  Q 559.80 193.01 560.87 193.88
  Z"
/>
<path fill="#481d65" d="
  M 442.26 180.29
  C 447.94 182.85 448.82 190.34 445.55 195.05
  Q 442.67 199.19 436.99 199.55
  Q 430.64 199.94 422.15 199.61
  Q 421.59 199.59 421.59 199.02
  L 421.60 162.44
  Q 421.60 161.74 422.30 161.74
  Q 428.48 161.74 434.91 161.76
  C 441.45 161.79 446.96 165.34 446.28 172.62
  Q 445.93 176.37 442.15 178.75
  Q 440.77 179.62 442.26 180.29
  Z
  M 426.30 166.40
  L 426.24 177.06
  A 0.66 0.66 0.0 0 0 426.90 177.72
  L 435.06 177.77
  A 6.54 5.73 0.3 0 0 441.63 172.07
  L 441.63 171.55
  A 6.54 5.73 0.3 0 0 435.12 165.79
  L 426.96 165.74
  A 0.66 0.66 0.0 0 0 426.30 166.40
  Z
  M 426.28 182.37
  L 426.22 194.99
  A 0.70 0.70 0.0 0 0 426.91 195.69
  L 435.80 195.74
  A 6.85 6.72 0.3 0 0 442.69 189.05
  L 442.69 188.47
  A 6.85 6.72 0.3 0 0 435.88 181.72
  L 426.99 181.67
  A 0.70 0.70 0.0 0 0 426.28 182.37
  Z"
/>
<path fill="#176fa5" d="
  M 192.78 162.87
  L 227.54 179.86
  Q 218.92 181.26 210.40 180.38
  L 202.43 180.54
  L 58.78 180.56
  L 24.72 164.10
  Q 25.14 163.89 25.42 163.44
  A 0.91 0.89 15.3 0 1 26.19 163.01
  C 30.99 162.97 35.75 163.13 40.57 162.96
  C 42.87 162.88 45.47 163.12 47.47 163.12
  Q 69.76 163.12 92.00 162.89
  Q 92.11 162.89 92.23 162.78
  Q 92.40 162.62 92.64 162.62
  L 192.78 162.87
  Z"
/>
<path fill="#481d65" d="
  M 589.61 175.36
  Q 589.62 174.51 588.76 174.51
  L 585.30 174.49
  Q 584.11 174.48 584.17 173.30
  L 584.24 171.71
  Q 584.28 170.71 585.29 170.74
  L 588.17 170.83
  Q 589.73 170.88 589.70 169.33
  L 589.61 164.45
  Q 589.59 163.74 590.30 163.74
  L 593.51 163.75
  A 0.63 0.63 0.0 0 1 594.13 164.38
  L 594.12 169.81
  A 1.05 1.05 0.0 0 0 595.21 170.86
  L 598.31 170.73
  Q 599.43 170.68 599.55 171.80
  L 599.69 173.10
  Q 599.84 174.53 598.40 174.52
  L 595.21 174.47
  A 1.07 1.07 0.0 0 0 594.13 175.54
  Q 594.13 184.86 594.17 193.77
  C 594.19 196.89 596.64 196.74 598.89 196.68
  Q 599.65 196.65 599.66 197.40
  L 599.71 199.37
  Q 599.73 199.94 599.19 200.14
  C 594.13 201.99 589.69 199.43 589.65 193.71
  Q 589.59 184.08 589.61 175.36
  Z"
/>
<path fill="#481d65" d="
  M 274.6092 200.8598
  A 15.12 13.03 89.7 0 1 261.5002 185.8082
  A 15.12 13.03 89.7 0 1 274.4508 170.6202
  A 15.12 13.03 89.7 0 1 287.5598 185.6718
  A 15.12 13.03 89.7 0 1 274.6092 200.8598
  Z
  M 274.5691 197.0798
  A 11.29 8.41 89.7 0 0 282.9199 185.7460
  A 11.29 8.41 89.7 0 0 274.4509 174.5002
  A 11.29 8.41 89.7 0 0 266.1001 185.8340
  A 11.29 8.41 89.7 0 0 274.5691 197.0798
  Z"
/>
<path fill="#481d65" d="
  M 297.94 174.13
  A 0.46 0.45 59.7 0 0 298.70 174.33
  C 303.69 169.29 313.48 169.06 315.21 177.31
  Q 315.72 179.78 315.68 184.22
  Q 315.61 191.60 315.61 198.99
  Q 315.61 199.71 314.89 199.71
  L 311.92 199.71
  Q 311.01 199.70 311.02 198.80
  Q 311.06 189.38 311.03 180.59
  C 311.01 176.91 309.18 174.78 305.29 174.79
  C 301.86 174.80 297.94 177.22 297.98 181.07
  Q 298.07 190.36 297.99 198.96
  Q 297.98 199.70 297.24 199.70
  L 294.24 199.72
  Q 293.51 199.73 293.51 198.99
  L 293.48 171.50
  Q 293.48 170.74 294.25 170.74
  L 296.98 170.77
  Q 297.98 170.78 297.82 171.75
  Q 297.62 172.99 297.94 174.13
  Z"
/>
<rect fill="#481d65" x="336.74" y="170.75" width="4.54" height="28.96" rx="0.50"/>
<path fill="#481d65" d="
  M 354.68 174.17
  C 356.74 172.13 359.42 170.79 362.35 170.78
  C 369.54 170.74 371.57 175.79 371.53 181.98
  Q 371.46 190.90 371.45 198.98
  A 0.76 0.75 -89.6 0 1 370.70 199.73
  L 367.49 199.72
  Q 366.82 199.72 366.83 199.05
  Q 366.94 189.07 366.79 179.91
  C 366.66 171.87 353.76 173.99 353.82 181.16
  Q 353.91 190.34 353.82 198.83
  A 0.87 0.87 0.0 0 1 352.93 199.69
  Q 352.40 199.68 350.14 199.70
  Q 349.27 199.71 349.27 198.84
  Q 349.32 184.37 349.26 171.51
  Q 349.26 170.76 350.01 170.76
  L 352.77 170.75
  Q 353.55 170.74 353.59 171.52
  L 353.71 173.80
  A 0.57 0.57 0.0 0 0 354.68 174.17
  Z"
/>
<path fill="#481d65" d="
  M 385.02 186.73
  Q 381.18 186.74 382.72 190.25
  L 383.57 192.17
  Q 385.39 196.31 389.88 196.80
  Q 394.69 197.33 397.86 193.75
  Q 398.45 193.07 399.19 193.60
  L 400.57 194.59
  Q 401.28 195.10 400.77 195.81
  Q 398.53 198.94 394.99 200.05
  C 387.27 202.45 379.53 198.30 378.11 190.13
  C 377.14 184.58 377.81 178.47 381.89 174.41
  C 387.71 168.63 397.45 169.76 400.45 177.76
  Q 401.87 181.55 401.55 185.98
  A 0.81 0.80 -87.7 0 1 400.75 186.72
  L 385.02 186.73
  Z
  M 383.12 182.84
  L 396.70 182.68
  A 0.55 0.55 0.0 0 0 397.24 182.12
  L 397.24 181.92
  A 7.27 7.21 89.3 0 0 389.94 174.74
  L 389.68 174.74
  A 7.27 7.21 89.3 0 0 382.56 182.10
  L 382.56 182.30
  A 0.55 0.55 0.0 0 0 383.12 182.84
  Z"
/>
<path fill="#481d65" d="
  M 465.5992 200.8498
  A 15.12 13.03 89.7 0 1 452.4902 185.7982
  A 15.12 13.03 89.7 0 1 465.4408 170.6102
  A 15.12 13.03 89.7 0 1 478.5498 185.6618
  A 15.12 13.03 89.7 0 1 465.5992 200.8498
  Z
  M 465.5297 197.0700
  A 11.29 8.42 89.9 0 0 473.9300 185.7653
  A 11.29 8.42 89.9 0 0 465.4903 174.4900
  A 11.29 8.42 89.9 0 0 457.0900 185.7947
  A 11.29 8.42 89.9 0 0 465.5297 197.0700
  Z"
/>
<path fill="#481d65" d="
  M 496.4856 200.8596
  A 15.12 13.01 89.6 0 1 483.3703 185.8308
  A 15.12 13.01 89.6 0 1 496.2744 170.6204
  A 15.12 13.01 89.6 0 1 509.3897 185.6492
  A 15.12 13.01 89.6 0 1 496.4856 200.8596
  Z
  M 496.3697 197.0600
  A 11.28 8.41 89.9 0 0 504.7600 185.7653
  A 11.28 8.41 89.9 0 0 496.3303 174.5000
  A 11.28 8.41 89.9 0 0 487.9400 185.7947
  A 11.28 8.41 89.9 0 0 496.3697 197.0600
  Z"
/>
<path fill="#481d65" d="
  M 616.4756 200.8596
  A 15.12 13.03 89.6 0 1 603.3403 185.8310
  A 15.12 13.03 89.6 0 1 616.2644 170.6204
  A 15.12 13.03 89.6 0 1 629.3997 185.6490
  A 15.12 13.03 89.6 0 1 616.4756 200.8596
  Z
  M 616.3797 197.0600
  A 11.28 8.40 89.9 0 0 624.7600 185.7653
  A 11.28 8.40 89.9 0 0 616.3403 174.5000
  A 11.28 8.40 89.9 0 0 607.9600 185.7947
  A 11.28 8.40 89.9 0 0 616.3797 197.0600
  Z"
/>
<path fill="#481d65" d="
  M 641.13 173.52
  Q 643.76 170.52 648.01 170.76
  Q 648.97 170.81 649.00 171.78
  L 649.07 174.53
  Q 649.10 175.62 648.02 175.50
  C 645.46 175.21 642.19 175.89 640.76 178.11
  Q 640.02 179.25 640.02 181.55
  Q 640.01 190.68 640.04 198.99
  A 0.70 0.70 0.0 0 1 639.36 199.69
  L 636.26 199.73
  Q 635.52 199.75 635.52 199.01
  L 635.50 171.37
  A 0.63 0.62 -89.6 0 1 636.13 170.74
  L 639.36 170.80
  Q 640.20 170.82 640.03 171.64
  Q 639.87 172.46 640.04 173.24
  A 0.63 0.63 0.0 0 0 641.13 173.52
  Z"
/>
<path fill="#481d65" d="
  M 656.63 187.37
  C 656.84 192.32 659.93 196.83 665.33 196.85
  Q 669.72 196.87 672.15 193.69
  Q 672.72 192.94 673.46 193.53
  L 675.05 194.77
  A 0.75 0.74 38.1 0 1 675.18 195.81
  Q 671.29 200.89 664.56 200.70
  C 653.19 200.38 649.89 188.04 653.12 179.28
  C 655.63 172.49 663.45 168.25 670.25 172.31
  C 675.19 175.25 676.11 180.72 675.99 185.99
  A 0.74 0.74 0.0 0 1 675.25 186.72
  L 657.24 186.73
  A 0.61 0.61 0.0 0 0 656.63 187.37
  Z
  M 657.57 182.85
  L 670.91 182.67
  A 0.66 0.66 0.0 0 0 671.56 182.00
  L 671.55 181.90
  A 7.26 7.26 0.0 0 0 664.19 174.74
  L 664.05 174.74
  A 7.26 7.26 0.0 0 0 656.90 182.10
  L 656.90 182.20
  A 0.66 0.66 0.0 0 0 657.57 182.85
  Z"
/>
<path fill="#34a853" d="
  M 227.54 179.86
  Q 227.98 179.88 229.10 180.69
  Q 229.52 180.99 229.52 181.51
  L 229.52 217.29
  A 0.34 0.34 0.0 0 1 229.18 217.63
  L 89.94 217.63
  A 3.60 3.54 -30.2 0 1 88.22 217.19
  L 22.93 181.52
  Q 21.62 180.80 23.12 180.79
  L 58.78 180.56
  L 202.43 180.54
  L 210.40 180.38
  Q 218.92 181.26 227.54 179.86
  Z
  M 116.77 196.93
  L 116.79 191.95
  Q 116.80 190.61 115.45 190.54
  L 114.48 190.48
  Q 112.87 190.40 112.80 192.01
  C 112.67 195.17 113.15 198.11 112.87 201.25
  Q 112.61 204.18 113.05 207.09
  Q 113.27 208.52 114.71 208.53
  L 115.24 208.53
  Q 116.78 208.55 116.82 207.01
  L 116.95 201.78
  A 1.25 1.25 0.0 0 1 117.20 201.06
  Q 118.51 199.32 119.70 200.48
  A 1.67 1.65 -68.6 0 1 120.22 201.69
  L 120.23 206.98
  Q 120.24 208.48 121.73 208.47
  L 122.67 208.47
  Q 124.29 208.46 124.26 206.83
  Q 124.21 203.82 124.10 200.46
  C 123.99 196.83 120.35 195.75 117.50 197.35
  Q 116.77 197.76 116.77 196.93
  Z
  M 211.53 204.27
  L 213.26 207.04
  Q 214.11 208.41 215.72 208.39
  L 217.65 208.35
  Q 219.23 208.32 218.28 207.06
  L 215.26 203.03
  A 1.39 1.38 -43.5 0 1 215.31 201.32
  L 218.43 197.66
  Q 219.23 196.72 217.99 196.78
  L 215.16 196.91
  Q 214.09 196.96 213.44 197.81
  L 211.72 200.03
  Q 210.75 201.29 210.76 199.70
  L 210.80 191.98
  Q 210.81 190.02 208.91 190.48
  Q 208.74 190.52 208.57 190.51
  Q 206.61 190.47 206.69 192.57
  Q 207.03 201.11 206.85 207.20
  Q 206.81 208.52 208.13 208.49
  L 209.41 208.46
  Q 210.75 208.43 210.79 207.09
  L 210.87 204.44
  Q 210.91 203.26 211.53 204.27
  Z
  M 104.09 199.89
  Q 104.86 200.43 104.80 201.37
  C 104.67 203.40 104.29 207.12 106.57 208.13
  C 107.85 208.70 111.57 209.35 112.05 207.27
  A 1.32 1.32 0.0 0 0 111.25 205.75
  L 109.54 205.06
  Q 108.99 204.83 108.90 204.25
  Q 108.63 202.51 108.98 200.75
  Q 109.09 200.17 109.69 200.17
  Q 111.62 200.19 112.01 198.64
  A 1.06 1.05 25.0 0 0 111.60 197.53
  Q 110.79 196.94 109.78 196.91
  A 0.83 0.83 0.0 0 1 108.99 196.23
  L 108.63 194.33
  Q 108.55 193.88 108.15 193.68
  Q 106.97 193.07 105.59 193.54
  Q 105.02 193.74 104.93 194.33
  L 104.68 196.04
  Q 104.60 196.63 104.14 197.03
  Q 103.69 197.43 103.10 197.63
  Q 102.59 197.80 102.36 197.31
  C 98.96 189.84 88.90 188.99 85.20 196.46
  C 83.25 200.40 84.88 205.58 88.76 207.71
  C 95.02 211.15 102.51 207.35 102.76 199.85
  Q 102.79 198.98 103.51 199.48
  L 104.09 199.89
  Z
  M 179.03 204.25
  Q 180.94 208.97 185.97 208.65
  C 192.54 208.24 194.22 199.86 188.51 197.28
  C 184.10 195.28 179.21 197.66 178.91 202.71
  Q 178.84 203.78 178.46 202.78
  Q 177.91 201.37 176.81 200.06
  A 0.85 0.84 -46.9 0 1 176.78 199.01
  C 179.34 195.50 177.58 192.23 173.50 192.01
  Q 169.65 191.81 166.33 191.96
  Q 165.28 192.01 165.29 193.06
  L 165.30 207.45
  A 0.92 0.92 0.0 0 0 166.17 208.37
  C 170.25 208.64 177.44 209.50 178.64 204.28
  Q 178.79 203.64 179.03 204.25
  Z
  M 130.48 203.72
  L 135.07 203.95
  Q 138.50 204.12 137.20 200.93
  L 136.74 199.81
  Q 135.49 196.74 132.17 196.63
  C 121.93 196.32 123.68 212.07 135.16 207.89
  Q 136.63 207.35 136.25 205.83
  Q 136.12 205.33 135.37 205.07
  Q 134.41 204.73 133.47 205.13
  L 132.01 205.74
  A 1.58 1.58 0.0 0 1 130.00 205.01
  L 129.85 204.71
  A 0.68 0.68 0.0 0 1 130.48 203.72
  Z
  M 142.59 197.35
  L 140.54 196.79
  A 1.48 1.48 0.0 0 0 138.66 198.22
  L 138.67 206.86
  Q 138.67 208.56 140.36 208.49
  L 141.14 208.46
  Q 142.68 208.40 142.73 206.86
  L 142.87 201.85
  Q 142.91 200.59 144.15 200.32
  L 145.82 199.97
  A 1.59 1.58 89.2 0 0 147.05 198.70
  Q 147.20 197.88 146.78 197.07
  A 1.07 1.07 0.0 0 0 145.44 196.56
  L 143.60 197.29
  Q 143.10 197.49 142.59 197.35
  Z
  M 153.06 205.19
  L 152.95 205.45
  A 0.77 0.77 0.0 0 1 151.96 205.85
  L 150.01 205.08
  Q 149.07 204.71 148.34 205.41
  Q 147.87 205.87 147.69 206.49
  A 1.29 1.28 16.8 0 0 148.54 208.06
  C 151.48 208.99 156.99 209.02 157.39 204.96
  C 157.64 202.37 154.64 201.30 152.45 201.11
  A 0.82 0.82 0.0 0 1 151.78 200.62
  Q 151.71 200.45 151.77 200.26
  Q 151.97 199.56 152.69 199.71
  L 154.51 200.08
  Q 155.40 200.26 155.90 199.51
  L 156.43 198.73
  A 0.89 0.89 0.0 0 0 156.10 197.45
  Q 152.60 195.63 149.49 197.39
  C 148.23 198.11 146.77 199.63 147.50 201.23
  C 149.01 204.51 150.31 203.23 152.83 204.52
  Q 153.26 204.74 153.06 205.19
  Z
  M 205.8664 202.4442
  A 6.51 6.11 -1.9 0 0 199.1574 196.5534
  A 6.51 6.11 -1.9 0 0 192.8536 202.8758
  A 6.51 6.11 -1.9 0 0 199.5626 208.7666
  A 6.51 6.11 -1.9 0 0 205.8664 202.4442
  Z"
/>
<ellipse fill="#34a853" cx="0.00" cy="0.00" transform="translate(93.54,200.17) rotate(88.5)" rx="5.11" ry="4.82"/>
<ellipse fill="#34a853" cx="0.00" cy="0.00" transform="translate(171.52,196.75) rotate(2.1)" rx="2.22" ry="1.55"/>
<ellipse fill="#34a853" cx="0.00" cy="0.00" transform="translate(131.45,200.45) rotate(-1.5)" rx="1.66" ry="0.96"/>
<circle fill="#34a853" cx="185.53" cy="202.72" r="2.53"/>
<circle fill="#34a853" cx="199.31" cy="202.72" r="2.53"/>
<rect fill="#34a853" x="-2.41" y="-1.80" transform="translate(171.88,203.40) rotate(2.6)" width="4.82" height="3.60" rx="1.45"/>
</svg>
