<?xml version="1.0" encoding="UTF-8" standalone="no"?>
<!DOCTYPE svg PUBLIC "-//W3C//DTD SVG 1.1//EN" "http://www.w3.org/Graphics/SVG/1.1/DTD/svg11.dtd">
<svg xmlns="http://www.w3.org/2000/svg" version="1.1" viewBox="0.00 0.00 183.00 130.00">
<g stroke-width="2.00" fill="none" stroke-linecap="butt">
<path stroke="#b84e98" vector-effect="non-scaling-stroke" d="
  M 58.18 10.18
  Q 58.71 9.44 58.64 9.12
  Q 58.59 8.87 58.79 8.73
  Q 59.20 8.42 59.28 7.94
  Q 59.36 7.47 58.99 7.16
  L 57.14 5.59"
/>
<path stroke="#b84e98" vector-effect="non-scaling-stroke" d="
  M 74.70 13.13
  Q 74.76 14.25 75.17 15.21
  Q 75.37 15.66 75.11 16.08
  L 74.17 17.60"
/>
<path stroke="#b84e98" vector-effect="non-scaling-stroke" d="
  M 76.22 22.86
  L 76.34 26.61
  Q 76.35 27.07 75.89 27.11
  Q 75.56 27.13 75.27 27.27"
/>
<path stroke="#b84e98" vector-effect="non-scaling-stroke" d="
  M 111.96 95.39
  Q 112.55 93.79 112.19 92.70
  Q 112.03 92.20 111.51 92.11
  L 108.53 91.55"
/>
</g>
<path fill="#8f449c" d="
  M 58.18 10.18
  Q 58.71 9.44 58.64 9.12
  Q 58.59 8.87 58.79 8.73
  Q 59.20 8.42 59.28 7.94
  Q 59.36 7.47 58.99 7.16
  L 57.14 5.59
  Q 58.52 5.15 60.26 4.78
  Q 77.16 1.17 91.61 8.17
  Q 100.70 12.57 107.35 20.29
  Q 118.75 33.50 118.71 52.44
  A 1.53 1.51 -19.5 0 1 118.13 53.63
  L 114.60 56.42
  A 0.45 0.44 -16.4 0 1 113.88 56.03
  Q 115.06 43.98 110.68 34.13
  Q 106.58 24.90 98.63 18.16
  Q 85.49 7.04 67.00 8.24
  C 64.00 8.43 61.09 9.30 58.18 10.18
  Z"
/>
<path fill="#8f449c" d="
  M 111.96 95.39
  Q 112.55 93.79 112.19 92.70
  Q 112.03 92.20 111.51 92.11
  L 108.53 91.55
  C 112.40 90.56 116.63 90.15 120.06 88.83
  Q 129.36 85.24 136.32 78.08
  Q 137.83 76.53 138.92 74.72
  C 139.92 73.06 141.30 71.68 142.20 69.99
  C 153.59 48.65 145.60 23.45 124.11 12.58
  Q 118.26 9.62 112.21 8.76
  Q 106.46 7.95 98.49 8.95
  Q 97.95 9.01 97.45 8.79
  L 92.75 6.70
  Q 91.75 6.25 92.78 5.87
  Q 96.97 4.31 101.40 4.00
  Q 124.18 2.43 139.49 18.56
  Q 150.82 30.50 151.65 47.29
  Q 152.16 57.47 148.65 66.31
  Q 140.82 86.01 120.78 93.25
  Q 118.78 93.98 116.46 94.45
  Q 114.28 94.90 111.96 95.39
  Z"
/>
<path fill="#e05793" d="
  M 57.14 5.59
  L 58.99 7.16
  Q 59.36 7.47 59.28 7.94
  Q 59.20 8.42 58.79 8.73
  Q 58.59 8.87 58.64 9.12
  Q 58.71 9.44 58.18 10.18
  Q 49.09 13.01 42.19 19.68
  Q 40.40 21.42 38.80 23.02
  C 36.37 25.45 35.09 28.09 33.29 30.87
  C 32.23 32.51 32.00 34.19 31.15 35.91
  Q 30.64 36.96 30.28 38.13
  Q 26.60 50.03 29.71 62.21
  Q 32.07 71.46 38.25 78.51
  Q 40.03 80.55 42.04 82.57
  Q 44.05 84.58 46.18 86.05
  Q 63.62 98.03 84.74 91.91
  Q 86.54 91.39 84.83 90.62
  Q 82.94 89.78 81.22 88.74
  C 78.71 87.22 76.89 89.05 74.44 88.85
  C 72.18 88.66 70.16 89.22 67.83 88.94
  Q 48.18 86.50 38.52 70.47
  Q 34.57 63.91 33.52 56.28
  Q 32.42 48.23 34.56 40.92
  Q 40.10 22.07 58.82 15.06
  Q 65.99 12.38 74.70 13.13
  Q 74.76 14.25 75.17 15.21
  Q 75.37 15.66 75.11 16.08
  L 74.17 17.60
  Q 67.41 17.21 63.00 18.48
  Q 47.38 22.99 40.81 37.23
  Q 36.53 46.49 38.15 56.12
  Q 40.14 67.95 48.48 75.58
  Q 59.37 85.53 74.43 84.39
  Q 75.45 84.31 74.73 83.58
  L 71.68 80.49
  Q 70.80 79.60 69.55 79.51
  Q 54.42 78.37 46.51 65.54
  Q 43.55 60.73 42.95 55.12
  Q 41.23 38.85 53.02 29.05
  Q 62.87 20.85 76.22 22.86
  L 76.34 26.61
  Q 76.35 27.07 75.89 27.11
  Q 75.56 27.13 75.27 27.27
  Q 58.68 25.44 50.34 39.04
  C 47.37 43.87 46.53 50.25 47.67 55.90
  C 49.24 63.67 55.29 71.04 63.42 73.68
  Q 66.29 74.61 68.39 77.25
  Q 68.55 77.45 68.75 77.30
  L 68.75 77.29
  Q 68.89 77.18 68.79 77.05
  Q 56.07 59.01 61.45 37.89
  Q 61.82 36.46 63.20 35.91
  L 65.85 34.86
  Q 67.36 34.26 66.84 35.79
  Q 61.63 51.20 66.99 64.19
  Q 75.77 85.42 96.50 90.50
  Q 99.18 91.15 108.53 91.55
  L 111.51 92.11
  Q 112.03 92.20 112.19 92.70
  Q 112.55 93.79 111.96 95.39
  Q 105.26 96.17 98.36 95.27
  Q 96.71 95.05 95.27 94.63
  C 93.76 94.20 92.27 93.68 90.73 94.32
  Q 85.35 96.57 80.59 97.53
  Q 64.53 100.77 50.36 93.73
  Q 30.75 84.00 25.02 62.60
  Q 23.12 55.53 23.64 48.81
  Q 25.54 24.11 45.61 10.85
  Q 50.36 7.72 57.14 5.59
  Z"
/>
<path fill="#b14d96" fill-opacity="0.996" d="
  M 138.80 33.79
  Q 143.64 43.06 142.21 54.46
  Q 140.75 66.13 133.00 74.65
  Q 128.89 79.17 123.31 82.22
  Q 119.22 84.46 113.52 85.80
  Q 108.26 87.04 103.25 86.59
  Q 87.26 85.16 77.64 73.43
  C 69.51 63.50 67.12 51.28 70.68 39.01
  Q 71.37 36.62 72.32 34.48
  A 0.81 0.80 18.6 0 1 73.25 34.02
  L 76.42 34.77
  Q 77.03 34.91 76.77 35.48
  Q 70.77 48.51 75.78 61.90
  C 76.80 64.64 79.07 68.28 81.01 70.48
  Q 94.38 85.70 113.90 81.12
  Q 120.38 79.59 125.56 75.46
  Q 137.44 65.98 138.14 51.23
  Q 138.60 41.54 133.64 33.33
  Q 125.65 20.08 109.33 17.60
  C 107.20 17.28 105.55 15.24 104.16 13.74
  Q 103.57 13.10 104.44 13.10
  Q 128.08 13.23 138.80 33.79
  Z"
/>
<path fill="#8f449c" d="
  M 74.70 13.13
  Q 88.04 14.56 97.22 23.25
  Q 108.74 34.14 109.33 51.20
  C 109.40 53.23 108.82 55.20 108.62 57.21
  Q 108.49 58.60 107.09 58.71
  L 105.17 58.86
  Q 103.66 58.98 104.05 57.51
  Q 104.38 56.22 104.48 55.02
  Q 105.92 36.60 92.15 25.10
  Q 84.65 18.83 74.17 17.60
  L 75.11 16.08
  Q 75.37 15.66 75.17 15.21
  Q 74.76 14.25 74.70 13.13
  Z"
/>
<path fill="#8f449c" d="
  M 76.22 22.86
  Q 91.38 26.02 97.48 39.76
  Q 100.78 47.19 99.17 56.79
  Q 99.08 57.34 98.52 57.34
  Q 96.35 57.34 94.95 55.79
  Q 94.60 55.40 94.67 54.88
  L 95.17 51.26
  Q 95.24 50.78 95.15 50.29
  Q 94.81 48.52 94.63 46.79
  Q 94.05 41.54 90.65 37.30
  C 89.64 36.04 88.86 34.65 87.63 33.61
  Q 82.24 29.02 75.27 27.27
  Q 75.56 27.13 75.89 27.11
  Q 76.35 27.07 76.34 26.61
  L 76.22 22.86
  Z"
/>
<path fill="#b14d96" fill-opacity="0.996" d="
  M 128.86 49.25
  Q 128.67 42.30 125.34 37.31
  Q 122.62 33.25 118.14 30.35
  C 115.69 28.77 114.88 26.21 113.20 24.00
  Q 112.49 23.07 113.62 23.40
  Q 123.11 26.14 128.85 34.61
  Q 135.90 45.00 132.20 57.83
  C 128.44 70.86 115.58 78.87 102.45 77.31
  Q 94.50 76.36 88.59 71.40
  Q 77.36 61.98 78.34 47.56
  Q 78.60 43.68 80.74 38.32
  Q 81.33 36.83 82.60 37.81
  L 84.05 38.92
  Q 85.20 39.80 84.59 41.12
  C 80.04 51.08 84.02 62.79 93.03 69.07
  Q 100.41 74.22 110.07 72.59
  Q 118.07 71.24 123.43 64.89
  Q 129.10 58.17 128.86 49.25
  Z"
/>
<path fill="#0a0c0a" fill-opacity="0.996" d="
  M 159.74 103.24
  C 158.53 103.58 156.91 102.79 155.76 103.50
  Q 155.32 103.78 155.01 103.36
  Q 154.93 103.24 154.89 103.11
  Q 154.81 102.83 155.09 102.80
  Q 157.37 102.55 159.72 102.91
  Q 160.49 103.03 159.74 103.24
  Z"
/>
<path fill="#0a0c0a" fill-opacity="0.996" d="
  M 34.11 104.86
  Q 30.86 103.03 29.04 106.48
  Q 26.00 112.25 22.75 117.09
  A 0.52 0.52 0.0 0 1 21.88 117.07
  L 18.67 111.86
  Q 18.58 111.71 18.73 111.62
  L 19.05 111.43
  Q 19.08 111.42 19.10 111.45
  Q 20.29 113.47 21.46 115.46
  A 1.10 1.10 0.0 0 0 23.38 115.42
  Q 26.17 110.27 28.92 105.74
  Q 30.89 102.49 34.57 104.14
  Q 34.77 104.23 34.69 104.43
  L 34.58 104.70
  Q 34.43 105.04 34.11 104.86
  Z"
/>
<rect fill="#0a0c0a" fill-opacity="0.996" x="-7.62" y="-0.35" transform="translate(68.94,103.99) rotate(0.1)" width="15.24" height="0.70" rx="0.27"/>
<path fill="#0a0c0a" fill-opacity="0.996" d="
  M 10.92 104.40
  Q 10.73 104.48 10.62 104.65
  Q 10.22 105.30 10.12 104.63
  L 10.06 104.27
  Q 10.03 104.03 10.25 103.96
  Q 11.79 103.52 13.39 103.88
  Q 14.52 104.14 13.36 104.17
  C 12.59 104.19 11.62 104.11 10.92 104.40
  Z"
/>
<path fill="#0a0c0a" fill-opacity="0.996" d="
  M 29.44 124.38
  Q 29.12 121.12 29.64 118.23
  Q 29.66 118.11 29.77 118.12
  L 30.02 118.13
  Q 30.04 118.13 30.04 118.15
  Q 29.90 121.02 29.99 123.72
  Q 30.04 125.47 31.80 125.44
  L 32.30 125.43
  Q 34.06 125.40 34.07 123.64
  L 34.14 106.65
  Q 34.15 106.43 34.36 106.44
  L 34.66 106.44
  Q 34.74 106.44 34.74 106.52
  L 34.74 124.24
  Q 34.74 125.72 33.26 125.83
  L 31.35 125.98
  Q 29.61 126.12 29.44 124.38
  Z"
/>
<rect fill="#0a0c0a" fill-opacity="0.996" x="-5.28" y="-0.32" transform="translate(71.24,107.99) rotate(-0.8)" width="10.56" height="0.64" rx="0.26"/>
<path fill="#0a0c0a" fill-opacity="0.996" d="
  M 63.18 125.48
  Q 63.47 125.52 63.75 125.43
  Q 65.46 124.89 65.43 123.09
  L 65.37 118.72
  A 0.80 0.80 0.0 0 1 65.98 117.93
  Q 66.23 117.87 66.48 117.90
  Q 67.31 117.98 66.61 118.44
  C 66.13 118.74 65.85 119.29 65.87 119.86
  Q 65.96 121.99 65.91 124.22
  Q 65.87 125.83 64.26 125.91
  L 62.31 126.01
  Q 60.34 126.10 60.35 124.12
  Q 60.39 116.29 60.46 108.46
  Q 60.46 108.31 60.61 108.31
  L 60.62 108.31
  Q 60.79 108.31 60.79 108.48
  Q 60.99 115.75 60.92 122.90
  Q 60.89 125.20 63.18 125.48
  Z"
/>
<path fill="#0a0c0a" fill-opacity="0.996" d="
  M 43.12 109.61
  Q 41.36 108.53 39.90 109.93
  Q 39.49 110.32 39.15 109.87
  L 38.99 109.66
  A 0.24 0.24 0.0 0 1 39.06 109.31
  Q 41.11 108.02 44.13 109.11
  A 1.03 1.02 -4.5 0 1 44.70 109.59
  Q 45.17 110.44 44.68 110.76
  Q 44.22 111.07 43.93 110.61
  L 43.61 110.09
  Q 43.42 109.79 43.12 109.61
  Z"
/>
<path fill="#0a0c0a" fill-opacity="0.996" d="
  M 48.50 109.42
  Q 48.20 109.39 47.96 109.17
  Q 47.57 108.81 48.08 108.65
  Q 48.81 108.43 49.40 108.82
  Q 50.58 109.64 49.16 109.88
  Q 49.05 109.90 48.50 109.42
  Z"
/>
<path fill="#0a0c0a" fill-opacity="0.996" d="
  M 89.48 109.77
  L 87.97 109.20
  Q 87.42 108.99 87.96 108.74
  Q 88.82 108.34 89.72 108.82
  Q 90.31 109.12 89.88 109.66
  A 0.34 0.34 0.0 0 1 89.48 109.77
  Z"
/>
<path fill="#0a0c0a" fill-opacity="0.996" d="
  M 115.72 110.24
  A 0.47 0.46 33.0 0 1 115.87 110.90
  Q 115.57 111.36 115.12 110.97
  C 112.49 108.63 110.49 109.50 107.38 109.28
  Q 106.17 109.19 107.34 108.88
  Q 111.55 107.74 115.72 110.24
  Z"
/>
<path fill="#0a0c0a" fill-opacity="0.996" d="
  M 127.03 109.43
  Q 127.48 109.68 127.13 110.05
  L 126.96 110.25
  Q 126.79 110.43 126.61 110.25
  Q 124.88 108.56 122.57 109.47
  Q 122.56 109.48 122.55 109.47
  L 122.47 109.22
  Q 122.37 108.92 122.67 108.86
  Q 125.12 108.34 127.03 109.43
  Z"
/>
<ellipse fill="#0a0c0a" fill-opacity="0.996" cx="0.00" cy="0.00" transform="translate(131.76,109.03) rotate(0.5)" rx="3.03" ry="0.34"/>
<ellipse fill="#0a0c0a" fill-opacity="0.996" cx="0.00" cy="0.00" transform="translate(149.31,109.01) rotate(-0.6)" rx="2.43" ry="0.33"/>
<ellipse fill="#0a0c0a" fill-opacity="0.996" cx="0.00" cy="0.00" transform="translate(170.34,109.00) rotate(-0.4)" rx="2.51" ry="0.24"/>
<path fill="#0a0c0a" fill-opacity="0.996" d="
  M 84.07 109.33
  Q 84.89 109.60 84.99 110.39
  A 0.48 0.48 0.0 0 1 84.08 110.67
  L 83.65 109.81
  Q 83.29 109.08 84.07 109.33
  Z"
/>
<path fill="#0a0c0a" fill-opacity="0.996" d="
  M 65.66 111.43
  C 65.59 112.18 66.20 113.09 66.70 113.62
  Q 67.27 114.23 66.50 113.90
  Q 65.04 113.27 65.60 111.41
  Q 65.69 111.11 65.66 111.43
  Z"
/>
<path fill="#0a0c0a" fill-opacity="0.996" d="
  M 79.33 124.32
  Q 79.50 118.00 79.11 111.72
  A 0.02 0.02 0.0 0 1 79.13 111.70
  L 79.38 111.68
  Q 79.73 111.67 79.73 112.01
  L 79.95 123.68
  A 1.74 1.73 12.8 0 0 80.92 125.20
  Q 81.79 125.62 82.59 125.39
  A 2.16 2.15 -11.7 0 0 84.12 123.08
  Q 83.68 119.19 84.57 115.48
  Q 84.72 114.83 85.26 114.48
  Q 85.85 114.10 85.44 114.67
  Q 84.91 115.40 84.85 116.26
  Q 84.63 119.90 84.73 124.18
  Q 84.76 125.71 83.23 125.81
  L 81.04 125.96
  Q 79.28 126.08 79.33 124.32
  Z"
/>
<path fill="#0a0c0a" fill-opacity="0.996" d="
  M 24.28 121.11
  Q 26.72 117.00 29.32 112.75
  A 0.31 0.30 -43.5 0 1 29.85 112.76
  L 30.15 113.33
  A 0.46 0.45 52.0 0 1 30.09 113.86
  Q 26.59 117.91 24.51 122.31
  Q 24.29 122.78 23.84 123.05
  C 22.10 124.09 20.21 123.12 19.47 121.36
  Q 18.33 118.66 16.68 116.36
  A 2.29 2.22 -2.7 0 0 15.92 115.69
  Q 14.79 115.05 14.68 113.53
  A 0.34 0.34 0.0 0 1 15.00 113.16
  L 15.31 113.13
  A 0.41 0.39 80.8 0 1 15.73 113.45
  Q 15.98 114.62 16.65 115.59
  Q 18.83 118.75 20.81 121.97
  A 1.61 1.61 0.0 0 0 23.22 122.36
  Q 23.86 121.81 24.28 121.11
  Z"
/>
<path fill="#0a0c0a" fill-opacity="0.996" d="
  M 74.95 114.39
  Q 74.89 114.33 74.80 114.30
  Q 74.29 114.14 74.79 113.95
  Q 75.32 113.76 75.65 114.19
  Q 75.85 114.47 75.81 114.83
  Q 75.71 115.75 75.72 116.68
  Q 75.72 117.14 75.40 117.45
  Q 75.24 117.61 75.01 117.68
  Q 74.09 117.99 74.78 117.30
  Q 75.20 116.88 75.37 116.28
  A 1.99 1.98 32.6 0 0 74.95 114.39
  Z"
/>
<path fill="#0a0c0a" fill-opacity="0.996" d="
  M 44.38 124.24
  Q 44.32 125.77 42.79 125.83
  L 40.35 125.93
  A 1.27 1.27 0.0 0 1 39.03 124.69
  Q 38.98 122.47 39.15 120.66
  Q 39.17 120.48 39.36 120.51
  Q 39.51 120.54 39.51 120.70
  L 39.51 123.16
  Q 39.52 124.89 41.20 125.32
  Q 41.80 125.47 42.37 125.25
  Q 44.11 124.56 44.04 122.68
  Q 43.93 119.94 44.03 116.77
  Q 44.07 115.60 44.78 114.87
  Q 45.43 114.19 45.01 115.03
  C 43.83 117.46 44.47 121.54 44.38 124.24
  Z"
/>
<path fill="#0a0c0a" fill-opacity="0.996" d="
  M 106.13 115.62
  Q 105.97 115.54 105.96 115.37
  Q 105.96 115.18 106.15 115.15
  Q 106.57 115.10 106.86 115.45
  Q 107.23 115.90 107.81 115.86
  L 113.50 115.45
  Q 113.58 115.45 113.59 115.52
  L 113.62 115.78
  Q 113.64 115.94 113.48 115.96
  Q 110.04 116.54 106.54 116.11
  Q 106.12 116.05 106.13 115.62
  Z"
/>
<path fill="#0a0c0a" fill-opacity="0.996" d="
  M 97.40 123.16
  Q 97.30 120.65 97.43 118.85
  Q 97.56 117.05 97.78 118.84
  Q 98.11 121.51 97.95 124.40
  Q 97.88 125.83 96.45 125.90
  L 94.55 126.00
  Q 92.63 126.10 92.63 124.17
  Q 92.62 120.00 92.85 115.89
  Q 92.85 115.87 92.87 115.87
  Q 92.99 115.84 92.87 115.87
  Q 93.00 119.33 93.03 122.67
  Q 93.04 124.69 94.94 125.35
  Q 95.60 125.57 96.24 125.22
  Q 97.45 124.54 97.40 123.16
  Z"
/>
<path fill="#0a0c0a" fill-opacity="0.996" d="
  M 101.15 118.88
  Q 101.70 120.53 102.60 121.92
  C 103.39 123.15 104.74 123.65 105.82 124.55
  Q 106.46 125.08 105.67 124.84
  Q 101.61 123.60 100.98 118.93
  Q 100.97 118.85 101.04 118.83
  L 101.05 118.83
  Q 101.13 118.81 101.15 118.88
  Z"
/>
<path fill="#0a0c0a" fill-opacity="0.996" d="
  M 53.9770 126.0419
  A 3.34 3.21 94.0 0 1 51.0078 122.4861
  A 3.34 3.21 94.0 0 1 54.4430 119.3781
  A 3.34 3.21 94.0 0 1 57.4122 122.9339
  A 3.34 3.21 94.0 0 1 53.9770 126.0419
  Z
  M 56.7993 123.3267
  A 2.66 2.53 11.2 0 0 54.6814 120.3282
  A 2.66 2.53 11.2 0 0 51.5807 122.2933
  A 2.66 2.53 11.2 0 0 53.6986 125.2918
  A 2.66 2.53 11.2 0 0 56.7993 123.3267
  Z"
/>
<ellipse fill="#0a0c0a" fill-opacity="0.996" cx="0.00" cy="0.00" transform="translate(144.06,123.09) rotate(44.5)" rx="2.12" ry="0.28"/>
<path fill="#0a0c0a" fill-opacity="0.996" d="
  M 10.39 124.13
  C 11.36 126.15 13.64 125.82 14.63 123.91
  Q 14.96 123.28 15.02 123.99
  Q 15.08 124.77 14.74 125.44
  Q 14.49 125.92 13.96 125.90
  L 10.77 125.81
  A 0.70 0.70 0.0 0 1 10.09 125.14
  L 10.06 124.21
  Q 10.03 123.37 10.39 124.13
  Z"
/>
<path fill="#0a0c0a" fill-opacity="0.996" d="
  M 134.37 124.76
  Q 134.65 125.16 135.16 125.24
  Q 136.29 125.43 135.17 125.68
  Q 133.66 126.03 133.41 124.49
  Q 133.21 123.22 133.98 124.24
  Q 134.18 124.50 134.37 124.76
  Z"
/>
<path fill="#0a0c0a" fill-opacity="0.996" d="
  M 138.09 124.49
  L 138.23 124.22
  Q 138.56 123.56 138.74 124.28
  Q 138.87 124.80 138.54 125.24
  Q 138.07 125.86 137.33 125.73
  Q 136.50 125.58 137.25 125.20
  L 137.53 125.06
  Q 137.90 124.87 138.09 124.49
  Z"
/>
<path fill="#0a0c0a" fill-opacity="0.996" d="
  M 122.51 125.00
  Q 122.82 125.08 123.11 125.28
  Q 123.49 125.55 123.04 125.67
  Q 122.61 125.79 122.25 125.64
  Q 121.65 125.38 121.56 124.75
  Q 121.47 124.08 121.88 124.61
  C 122.03 124.80 122.28 124.94 122.51 125.00
  Z"
/>
<path fill="#0a0c0a" fill-opacity="0.996" d="
  M 125.94 124.90
  L 126.35 124.32
  A 0.05 0.05 0.0 0 1 126.44 124.34
  Q 126.78 125.47 125.67 125.68
  Q 124.39 125.92 125.41 125.11
  Q 125.53 125.01 125.70 125.02
  Q 125.85 125.03 125.94 124.90
  Z"
/>
<path fill="#0a0c0a" fill-opacity="0.996" d="
  M 156.15 125.03
  L 156.87 125.38
  A 0.04 0.03 48.9 0 1 156.87 125.45
  Q 156.72 125.48 156.60 125.54
  Q 156.52 125.57 156.45 125.55
  Q 155.47 125.23 154.43 124.87
  A 0.28 0.28 0.0 0 1 154.54 124.32
  Q 155.18 124.38 155.66 124.74
  Q 155.89 124.91 156.15 125.03
  Z"
/>
<ellipse fill="#0a0c0a" fill-opacity="0.996" cx="0.00" cy="0.00" transform="translate(169.45,126.00) rotate(-1.3)" rx="1.40" ry="0.23"/>
</svg>
